<?xml version="1.0" standalone="no"?>
<!DOCTYPE svg PUBLIC "-//W3C//DTD SVG 20010904//EN"
 "http://www.w3.org/TR/2001/REC-SVG-20010904/DTD/svg10.dtd">
<svg version="1.0" xmlns="http://www.w3.org/2000/svg"
 width="260.000000pt" height="260.000000pt" viewBox="0 0 260.000000 260.000000"
 preserveAspectRatio="xMidYMid meet">
<metadata>
Created by potrace 1.11, written by Peter Selinger 2001-2013
</metadata>
<g transform="translate(0.000000,260.000000) scale(0.100000,-0.100000)"
fill="#000000" stroke="none">
<path d="M0 1300 l0 -1300 1300 0 1300 0 0 1300 0 1300 -1300 0 -1300 0 0
-1300z m1710 814 c85 -34 81 -67 -35 -330 -52 -118 -95 -217 -95 -220 0 -2 70
-3 155 -2 l156 3 109 245 c117 262 136 290 209 310 50 13 106 -4 135 -43 18
-24 19 -32 8 -72 -6 -24 -50 -130 -97 -236 -47 -105 -85 -195 -85 -200 0 -5
33 -9 74 -9 95 0 126 -20 126 -84 0 -86 -50 -118 -199 -126 l-104 -5 -54 -119
c-29 -66 -53 -121 -53 -123 0 -2 56 -3 124 -3 110 0 126 -2 150 -21 21 -17 26
-29 26 -65 0 -37 -6 -51 -28 -74 -44 -43 -95 -52 -276 -48 -180 4 -222 15
-257 72 -34 55 -25 111 36 250 30 68 55 127 55 130 0 3 -69 6 -153 6 l-154 0
-111 -251 c-62 -137 -135 -285 -162 -329 -94 -145 -227 -246 -370 -280 -67
-16 -208 -16 -274 -1 -129 31 -244 118 -298 228 -43 89 -51 216 -20 320 71
231 285 404 600 485 97 24 146 31 287 36 l169 7 106 239 c59 131 117 251 131
268 21 26 83 56 116 58 7 0 31 -7 53 -16z"/>
<path d="M1013 1339 c-169 -22 -292 -78 -394 -179 -88 -88 -114 -142 -114
-242 0 -69 3 -80 31 -120 43 -58 101 -88 174 -88 31 0 72 5 91 12 99 33 189
137 263 303 25 55 67 151 95 213 l50 112 -67 -1 c-37 -1 -95 -5 -129 -10z"/>
</g>
</svg>
